<svg width="68" height="40" viewBox="0 0 68 40" fill="none" xmlns="http://www.w3.org/2000/svg">
<rect x="1.42017" y="0.5" width="65.7184" height="39" rx="19.5" stroke="#BDC4D4"/>
<path d="M43.5325 27.9047C42.1632 25.5375 40.0531 23.8401 37.5906 23.0354C38.8087 22.3103 39.7551 21.2054 40.2844 19.8903C40.8137 18.5753 40.8967 17.1229 40.5207 15.7561C40.1447 14.3893 39.3304 13.1837 38.2029 12.3245C37.0753 11.4653 35.697 11 34.2794 11C32.8618 11 31.4834 11.4653 30.3559 12.3245C29.2284 13.1837 28.4141 14.3893 28.0381 15.7561C27.662 17.1229 27.7451 18.5753 28.2744 19.8903C28.8037 21.2054 29.7501 22.3103 30.9682 23.0354C28.5056 23.8392 26.3956 25.5366 25.0263 27.9047C24.9761 27.9866 24.9428 28.0777 24.9283 28.1727C24.9139 28.2676 24.9186 28.3645 24.9422 28.4576C24.9659 28.5507 25.0079 28.6381 25.0658 28.7147C25.1238 28.7913 25.1965 28.8555 25.2797 28.9036C25.3628 28.9516 25.4548 28.9825 25.5501 28.9944C25.6454 29.0064 25.7421 28.9991 25.8346 28.973C25.927 28.947 26.0133 28.9027 26.0883 28.8427C26.1634 28.7828 26.2256 28.7084 26.2715 28.624C27.9653 25.6966 30.9592 23.9489 34.2794 23.9489C37.5996 23.9489 40.5935 25.6966 42.2873 28.624C42.3331 28.7084 42.3954 28.7828 42.4704 28.8427C42.5455 28.9027 42.6318 28.947 42.7242 28.973C42.8167 28.9991 42.9134 29.0064 43.0087 28.9944C43.104 28.9825 43.1959 28.9516 43.2791 28.9036C43.3623 28.8555 43.435 28.7913 43.4929 28.7147C43.5509 28.6381 43.5929 28.5507 43.6165 28.4576C43.6401 28.3645 43.6449 28.2676 43.6304 28.1727C43.616 28.0777 43.5827 27.9866 43.5325 27.9047ZM29.2447 17.4757C29.2447 16.4799 29.5399 15.5065 30.0932 14.6785C30.6464 13.8506 31.4327 13.2053 32.3527 12.8242C33.2727 12.4431 34.285 12.3434 35.2616 12.5377C36.2383 12.7319 37.1354 13.2115 37.8395 13.9156C38.5436 14.6197 39.0231 15.5168 39.2174 16.4934C39.4116 17.4701 39.3119 18.4824 38.9309 19.4024C38.5498 20.3223 37.9045 21.1087 37.0765 21.6619C36.2486 22.2151 35.2752 22.5104 34.2794 22.5104C32.9445 22.509 31.6648 21.9781 30.7209 21.0342C29.777 20.0903 29.2461 18.8105 29.2447 17.4757Z" fill="url(#paint0_linear_5_38)"/>
<defs>
<linearGradient id="paint0_linear_5_38" x1="34.2794" y1="11" x2="34.2794" y2="29" gradientUnits="userSpaceOnUse">
<stop stop-color="#3D6984"/>
<stop offset="1" stop-color="#1C2E4A"/>
</linearGradient>
</defs>
</svg>
